#!OML:ASF H:\MichaelJackson\Top Level 1\Subject 1\Session 1\male.ASF
:FULLY-SPECIFIED
:DEGREES
517
root 2.24705 14.6909 -6.27647 3.68996 -7.02045 -8.83163
lowerback 4.95293 -3.43935 -0.116976
upperback 1.40975 -4.54811 3.38805
thorax -1.03336 -2.28539 3.80694
lowerneck -7.01543 -7.91308 -0.196063
upperneck 11.9261 -11.0411 2.74728
head 4.90131 -5.26372 0.174698
rclavicle -3.70733e-014 -3.97569e-016
rhumerus -28.1543 -33.7301 -58.7021
rradius 87.1554
rwrist -64.7058
rhand -40.7018 -66.1377
rfingers 7.12502
rthumb -13.6442 455.67
lclavicle -3.70733e-014 -3.97569e-016
lhumerus -54.2587 -15.6752 90.228
lradius 47.9149
lwrist 27.0642
lhand -22.4453 4.0368
lfingers 7.12502
lthumb 3.97881 33.9794
rfemur -26.392 0.512244 -0.838477
rtibia 40.6248
rfoot -12.8842 -7.35774
rtoes -50.0804
lfemur -22.7834 23.5851 13.8576
ltibia 62.0368
lfoot -27.0039 8.62621
ltoes -29.8369
518
root 2.16338 14.6293 -6.30322 3.85468 -6.70877 -8.69652
lowerback 5.35119 -3.20013 -0.315581
upperback 1.49001 -4.23593 3.15778
thorax -1.19641 -2.12648 3.6876
lowerneck -7.11906 -7.8657 -0.137372
upperneck 11.2905 -10.9722 2.91196
head 4.72774 -5.22828 0.231066
rclavicle -1.19271e-014 3.97569e-016
rhumerus -29.6003 -31.3744 -59.4584
rradius 87.1341
rwrist -65.3348
rhand -40.3347 -70.4934
rfingers 7.12502
rthumb -13.2904 460.05
lclavicle -1.19271e-014 3.97569e-016
lhumerus -53.875 -16.5469 89.9308
lradius 48.012
lwrist 27.7836
lhand -23.2953 3.83449
lfingers 7.12502
lthumb 3.15794 33.7909
rfemur -27.4153 -0.597718 -0.757989
rtibia 42.3506
rfoot -14.0602 -7.3233
rtoes -50.2109
lfemur -23.6619 24.0648 13.9114
ltibia 62.7836
lfoot -26.7664 8.65558
ltoes -29.8675
519
root 2.08794 14.5718 -6.3299 4.03549 -6.26622 -8.56119
lowerback 5.71068 -2.99011 -0.4225
upperback 1.56457 -3.96044 2.91896
thorax -1.34767 -1.986 3.50494
lowerneck -7.21637 -7.80701 -0.0488314
upperneck 10.684 -10.8837 3.00473
head 4.55631 -5.1865 0.262104
rclavicle 7.55382e-015 8.74653e-015
rhumerus -30.7803 -29.2142 -60.5742
rradius 87.4869
rwrist -65.3235
rhand -39.9053 -71.9465
rfingers 7.12502
rthumb -12.8765 461.529
lclavicle 7.55382e-015 8.74653e-015
lhumerus -53.493 -17.4955 89.6365
lradius 48.0967
lwrist 28.1322
lhand -23.8631 3.53235
lfingers 7.12502
lthumb 2.60955 33.4961
rfemur -28.4003 -1.75042 -0.711657
rtibia 44.0277
rfoot -15.0946 -7.1286
rtoes -50.3527
lfemur -24.6162 24.3435 13.9063
ltibia 63.4777
lfoot -26.583 8.62108
ltoes -29.8943
520
root 2.02124 14.5191 -6.35445 4.24169 -5.65558 -8.46221
lowerback 6.00657 -2.82457 -0.40435
upperback 1.62494 -3.73857 2.69151
thorax -1.48073 -1.87267 3.26169
lowerneck -7.34289 -7.73732 0.0240112
upperneck 9.80822 -10.763 2.98583
head 4.77299 -5.14317 0.304305
rclavicle 1.97791e-014 -1.90833e-014
rhumerus -31.6872 -27.1994 -61.9611
rradius 88.0717
rwrist -64.4277
rhand -39.795 -72.6304
rfingers 7.12502
rthumb -12.7702 462.22
lclavicle 1.97791e-014 -1.90833e-014
lhumerus -53.1274 -18.4671 89.3456
lradius 48.1606
lwrist 28.0066
lhand -24.2331 3.0831
lfingers 7.12502
lthumb 2.25222 33.051
rfemur -29.2699 -3.0193 -0.644766
rtibia 45.5672
rfoot -16.0224 -6.82975
rtoes -50.4772
lfemur -25.6789 24.4658 13.871
ltibia 64.1351
lfoot -26.4436 8.50456
ltoes -29.9267
521
root 1.96297 14.4712 -6.37637 4.48579 -4.88009 -8.45173
lowerback 6.23109 -2.70243 -0.238825
upperback 1.66503 -3.5656 2.50394
thorax -1.59678 -1.78435 2.97544
lowerneck -7.4232 -7.65242 0.144025
upperneck 9.33597 -10.6355 2.9532
head 4.60277 -5.08602 0.289935
rclavicle -1.12313e-014 -7.15625e-015
rhumerus -32.3086 -25.2415 -63.5318
rradius 88.755
rwrist -62.5489
rhand -39.9449 -72.7677
rfingers 7.12502
rthumb -12.9147 462.348
lclavicle -1.12313e-014 -7.15625e-015
lhumerus -52.7796 -19.4112 89.0627
lradius 48.2009
lwrist 27.3792
lhand -24.4394 2.56152
lfingers 7.12502
lthumb 2.05295 32.5314
rfemur -29.9895 -4.41654 -0.485651
rtibia 46.8958
rfoot -16.8326 -6.51594
rtoes -50.5956
lfemur -26.8721 24.5295 13.8551
ltibia 64.7745
lfoot -26.3 8.31633
ltoes -29.9717
522
root 1.91309 14.4296 -6.3954 4.76238 -3.96362 -8.54447
lowerback 6.39311 -2.6175 0.0565483
upperback 1.67868 -3.43286 2.37157
thorax -1.70548 -1.71671 2.6729
lowerneck -7.46926 -7.55554 0.267273
upperneck 8.90998 -10.4906 2.87916
head 4.44073 -5.02199 0.262882
rclavicle 8.15017e-015 3.18055e-015
rhumerus -32.6637 -23.2131 -65.1908
rradius 89.4486
rwrist -59.782
rhand -40.314 -72.5611
rfingers 7.12502
rthumb -13.2704 462.119
lclavicle 8.15017e-015 3.18055e-015
lhumerus -52.4628 -20.2764 88.7961
lradius 48.2259
lwrist 26.3285
lhand -24.6082 1.94152
lfingers 7.12502
lthumb 1.89 31.9129
rfemur -30.531 -5.91143 -0.221696
rtibia 47.9663
rfoot -17.5502 -6.22083
rtoes -50.7074
lfemur -28.1932 24.6348 13.8574
ltibia 65.4089
lfoot -26.1082 8.08467
ltoes -29.975
